HIERARCHY
ROOT Hips
{
	OFFSET	0.000000	0.000000	0.000000
	CHANNELS 6 Xposition Yposition Zposition Zrotation Xrotation Yrotation
	JOINT LeftHip
	{
		OFFSET	4.740440	-3.195970	-0.322709
		CHANNELS 3 Zrotation Xrotation Yrotation
		JOINT LeftKnee
		{
			OFFSET	-1.605680	-15.592300	1.005510
			CHANNELS 3 Zrotation Xrotation Yrotation
			JOINT LeftAnkle
			{
				OFFSET	-0.632401	-16.421000	-1.413730
				CHANNELS 3 Zrotation Xrotation Yrotation
				End Site
				{
					OFFSET	0.008423	-2.933000	-1.776750
				}
			}
		}
	}
	JOINT RightHip
	{
		OFFSET	-4.740440	-3.195970	-0.322709
		CHANNELS 3 Zrotation Xrotation Yrotation
		JOINT RightKnee
		{
			OFFSET	1.605680	-15.592300	1.005510
			CHANNELS 3 Zrotation Xrotation Yrotation
			JOINT RightAnkle
			{
				OFFSET	0.632401	-16.421000	-1.413730
				CHANNELS 3 Zrotation Xrotation Yrotation
				End Site
				{
					OFFSET	-0.008423	-2.933000	-1.776750
				}
			}
		}
	}
	JOINT Chest
	{
		OFFSET	0.000000	3.468200	0.078401
		CHANNELS 3 Zrotation Xrotation Yrotation
		JOINT LeftCollar
		{
			OFFSET	3.857650	15.070700	-0.011583
			CHANNELS 3 Zrotation Xrotation Yrotation
			JOINT LeftShoulder
			{
				OFFSET	3.979720	-1.940530	-0.165223
				CHANNELS 3 Zrotation Xrotation Yrotation
				JOINT LeftElbow
				{
					OFFSET	0.615844	-10.986600	-0.673886
					CHANNELS 3 Zrotation Xrotation Yrotation
					JOINT LeftWrist
					{
						OFFSET	0.826843	-10.854500	1.034220
						CHANNELS 3 Zrotation Xrotation Yrotation
						End Site
						{
							OFFSET	-1.679080	-8.456540	0.936217
						}
					}
				}
			}
		}
		JOINT RightCollar
		{
			OFFSET	-3.857650	15.070700	-0.011583
			CHANNELS 3 Zrotation Xrotation Yrotation
			JOINT RightShoulder
			{
				OFFSET	-3.979720	-1.940530	-0.165223
				CHANNELS 3 Zrotation Xrotation Yrotation
				JOINT RightElbow
				{
					OFFSET	-0.615845	-10.986600	-0.673886
					CHANNELS 3 Zrotation Xrotation Yrotation
					JOINT RightWrist
					{
						OFFSET	-0.826843	-10.854500	1.034220
						CHANNELS 3 Zrotation Xrotation Yrotation
						End Site
						{
							OFFSET	1.679080	-8.456540	0.936217
						}
					}
				}
			}
		}
		JOINT Neck
		{
			OFFSET	0.000000	15.101400	0.055730
			CHANNELS 3 Zrotation Xrotation Yrotation
			JOINT Head
			{
				OFFSET	0.000000	4.185120	1.488260
				CHANNELS 3 Zrotation Xrotation Yrotation
				End Site
				{
					OFFSET	0.000000	7.773420	-0.106016
				}
			}
		}
	}
}
MOTION
Frames:     16
Frame Time: 0.016667
1.750477	37.559109	-1.498733	2.802588	-10.163704	-8.993684	-4.861231	5.704250	-1.580575	-4.499360	4.119100	3.079494	7.151593	-0.655545	8.425700	-14.932740	-5.289036	-2.595196	0.378468	21.971579	3.201968	8.156152	-6.891288	3.911517	-4.250340	7.832860	0.746582	-3.835200	2.965984	2.516078	3.815859	-4.106299	-0.868100	-1.761333	-7.046598	-7.710788	13.127597	0.592103	-18.212820	-3.711150	3.799281	3.363418	-1.096276	-7.652922	1.506594	-0.065145	-8.299299	15.156936	-11.997678	-1.266746	13.441596	-2.411134	9.815111	0.826693	3.328629	7.707482	-5.385212	
1.751387	37.559162	-1.493968	2.802588	-10.163704	-8.993684	-4.864623	5.713672	-1.596986	-4.498930	4.113666	3.094556	7.153381	-0.660647	8.427442	-14.932740	-5.289036	-2.595196	0.376939	21.971107	3.212428	8.156404	-6.892303	3.901600	-4.250340	7.832860	0.746582	-3.835200	2.965984	2.516078	3.805408	-4.059219	-0.870755	-1.642366	-6.949567	-7.523113	13.094938	0.532707	-18.307467	-3.711150	3.799281	3.363418	-1.096276	-7.652922	1.506594	-0.065263	-8.298472	15.151172	-12.009888	-1.262580	13.388897	-2.410119	9.814877	0.831231	3.351752	7.570057	-5.173312	
1.752346	37.559254	-1.489250	2.802588	-10.163704	-8.993684	-4.868306	5.723505	-1.615332	-4.498034	4.106916	3.111752	7.154909	-0.665008	8.428864	-14.937315	-5.288940	-2.596947	0.379422	21.970749	3.224418	8.156653	-6.893328	3.891590	-4.250340	7.832860	0.746582	-3.809698	3.000971	2.517699	3.769186	-4.051787	-0.873827	-1.525854	-6.844136	-7.289281	13.185179	0.726305	-18.254271	-3.711150	3.799281	3.363418	-1.096276	-7.652922	1.506594	-0.063986	-8.294177	15.103922	-12.043835	-1.234710	13.309761	-2.392093	9.810772	0.911921	3.363424	7.448452	-5.062497	
1.753264	37.558964	-1.484195	2.802588	-10.163704	-8.993684	-4.870296	5.728516	-1.625498	-4.500947	4.112025	3.119762	7.158663	-0.675716	8.432499	-14.942839	-5.288830	-2.599034	0.383546	21.970667	3.231156	8.156777	-6.893815	3.886815	-4.248961	7.832925	0.740812	-3.815471	3.008252	2.515317	3.712740	-4.017356	-0.864106	-1.411089	-6.808976	-7.166148	13.344830	1.058130	-18.024652	-3.703959	3.804379	3.357282	-1.104997	-7.657917	1.503640	-0.061024	-8.293986	15.114978	-12.049878	-1.235409	13.279677	-2.383067	9.807916	0.968388	3.390097	7.339451	-4.970395	
1.755774	37.558327	-1.482084	2.799886	-10.163032	-8.998548	-4.871720	5.719129	-1.656951	-4.504749	4.129566	3.154540	7.162660	-0.687097	8.436378	-14.957389	-5.289832	-2.601570	0.396825	21.970425	3.252100	8.157146	-6.895312	3.872169	-4.241146	7.832562	0.722084	-3.819958	3.020795	2.531522	3.627980	-3.982642	-0.814837	-1.183230	-6.642222	-6.840387	13.363140	1.044433	-18.079590	-3.685786	3.818771	3.346289	-1.128858	-7.672517	1.509092	-0.061348	-8.280545	15.141336	-12.055670	-1.249736	13.234945	-2.385501	9.805261	1.022625	3.408997	7.246361	-4.870685	
1.756348	37.558285	-1.480799	2.796588	-10.162186	-9.004595	-4.869144	5.717900	-1.652861	-4.506996	4.135797	3.154876	7.164701	-0.692910	8.438359	-14.959919	-5.291428	-2.598778	0.401664	21.970369	3.259238	8.157261	-6.895817	3.867281	-4.236508	7.831898	0.719240	-3.814515	3.027570	2.542051	3.573622	-3.992701	-0.767478	-1.094449	-6.566442	-6.751613	13.437842	1.176834	-17.973770	-3.682016	3.822213	3.345984	-1.134497	-7.676223	1.515437	-0.068549	-8.265875	15.160727	-12.070765	-1.265326	13.215793	-2.383868	9.803752	1.053351	3.420541	7.196678	-4.825792	
1.757875	37.558208	-1.476478	2.786119	-10.159512	-9.023768	-4.860266	5.715410	-1.635597	-4.514506	4.154628	3.151468	7.171221	-0.711481	8.444678	-14.968027	-5.295294	-2.595160	0.417287	21.969746	3.271887	8.157281	-6.895898	3.866604	-4.221866	7.829815	0.710520	-3.807077	3.039835	2.572004	3.500111	-3.994820	-0.704231	-0.919823	-6.397784	-6.515728	13.431198	1.126621	-18.050776	-3.689215	3.821050	3.370062	-1.135221	-7.676794	1.516513	-0.085174	-8.225726	15.151332	-12.110571	-1.318181	13.220465	-2.389854	9.780046	1.149340	3.508310	7.036995	-4.704836	
1.758404	37.558197	-1.475067	2.782327	-10.158553	-9.030693	-4.857050	5.714519	-1.629363	-4.517024	4.160949	3.150316	7.173409	-0.717713	8.446808	-14.970183	-5.295754	-2.597959	0.420568	21.968592	3.280706	8.157281	-6.895898	3.866604	-4.216723	7.829066	0.708003	-3.801399	3.046930	2.583100	3.491306	-4.001098	-0.678012	-0.878169	-6.337389	-6.481191	13.431301	1.138450	-18.044012	-3.691921	3.820456	3.378554	-1.135221	-7.676794	1.516513	-0.089736	-8.215159	15.151509	-12.112121	-1.329763	13.217709	-2.405389	9.770439	1.185183	3.544804	6.990339	-4.664981	
1.760021	37.558254	-1.471120	2.770111	-10.155425	-9.053015	-4.846684	5.711620	-1.609269	-4.524344	4.179315	3.146982	7.179767	-0.735825	8.452983	-14.977256	-5.296885	-2.608540	0.430649	21.964537	3.310802	8.157281	-6.895898	3.866604	-4.200794	7.826596	0.702549	-3.799973	3.053501	2.610654	3.492544	-4.003481	-0.602428	-0.785883	-6.198112	-6.526888	13.396195	1.158085	-18.019047	-3.699834	3.818731	3.403358	-1.135221	-7.676794	1.516513	-0.107666	-8.173629	15.152194	-12.119307	-1.336271	13.175576	-2.401008	9.764425	1.289787	3.590926	6.787775	-4.558897	
1.760559	37.558292	-1.469933	2.765818	-10.154340	-9.060849	-4.843042	5.710615	-1.602216	-4.526651	4.185118	3.145942	7.181772	-0.741546	8.454926	-14.980528	-5.296340	-2.616668	0.432651	21.962042	3.330282	8.157384	-6.896297	3.862592	-4.195309	7.825739	0.701072	-3.802502	3.052906	2.618929	3.496571	-4.001338	-0.573190	-0.765471	-6.164535	-6.549647	13.385489	1.169612	-18.042490	-3.702473	3.818151	3.411640	-1.135221	-7.676794	1.516513	-0.117914	-8.151664	15.163549	-12.128968	-1.346751	13.160074	-2.386667	9.746999	1.354275	3.608278	6.737041	-4.541552	
1.762223	37.558479	-1.466495	2.752174	-10.150856	-9.085734	-4.831459	5.707401	-1.579818	-4.533566	4.202440	3.142825	7.187784	-0.758629	8.460729	-14.982701	-5.260509	-2.616795	0.442769	21.919666	3.362632	8.157647	-6.897327	3.852637	-4.178493	7.822969	0.698918	-3.808019	3.060253	2.650215	3.496652	-3.967535	-0.500809	-0.704501	-6.114590	-6.613172	13.360109	1.192782	-18.065619	-3.710078	3.816494	3.435497	-1.133781	-7.677063	1.536405	-0.134053	-8.129094	15.178516	-12.179398	-1.339576	13.139699	-2.374341	9.709631	1.419128	3.671843	6.600423	-4.393413	
1.762805	37.558544	-1.465304	2.747387	-10.149631	-9.094462	-4.827394	5.706275	-1.571961	-4.535968	4.208464	3.141746	7.189872	-0.764570	8.462742	-14.977847	-5.247122	-2.605805	0.445537	21.903820	3.358967	8.157647	-6.897327	3.852637	-4.172765	7.821984	0.698865	-3.814728	3.064202	2.664414	3.498282	-3.948802	-0.486402	-0.678317	-6.104695	-6.628080	13.351923	1.198766	-18.059931	-3.712530	3.815966	3.443187	-1.132910	-7.677243	1.548213	-0.146175	-8.116152	15.228329	-12.192355	-1.332416	13.093409	-2.371975	9.706038	1.447044	3.672985	6.520170	-4.361257	
1.764581	37.558750	-1.461703	2.732673	-10.145878	-9.121254	-4.814895	5.702834	-1.547845	-4.543271	4.226788	3.138447	7.196223	-0.782638	8.468887	-14.963302	-5.198393	-2.570374	0.455383	21.847544	3.345926	8.157647	-6.897327	3.852637	-4.155520	7.818974	0.700159	-3.839993	3.074567	2.707718	3.512047	-3.921678	-0.464921	-0.669864	-6.129324	-6.606553	13.388083	1.267352	-18.037663	-3.719606	3.814441	3.465378	-1.129879	-7.677835	1.588996	-0.156301	-8.120135	15.240039	-12.221709	-1.298793	13.112231	-2.398627	9.698987	1.478552	3.731040	6.367861	-4.148778	
1.765200	37.558819	-1.460429	2.727573	-10.144587	-9.130527	-4.810563	5.701654	-1.539501	-4.545831	4.233220	3.137293	7.198450	-0.788978	8.471044	-14.958802	-5.169988	-2.555584	0.460820	21.816553	3.338740	8.157647	-6.897327	3.852637	-4.149670	7.817951	0.701124	-3.845934	3.072789	2.728451	3.517756	-3.917009	-0.453638	-0.675815	-6.132510	-6.602794	13.397113	1.261635	-18.008406	-3.727028	3.810780	3.479281	-1.124331	-7.675076	1.597278	-0.160001	-8.121731	15.246077	-12.215097	-1.292865	13.124806	-2.397739	9.697798	1.503389	3.722490	6.285520	-4.108054	
1.767104	37.559006	-1.456407	2.712074	-10.140676	-9.158655	-4.797392	5.698092	-1.514186	-4.553813	4.253257	3.133676	7.205398	-0.808733	8.477783	-14.957026	-5.022285	-2.459624	0.512247	21.661137	3.261436	8.157647	-6.897327	3.852637	-4.133740	7.814759	0.711736	-3.857353	3.061632	2.787864	3.533328	-3.904027	-0.417579	-0.668638	-6.098125	-6.588522	13.411343	1.268518	-17.995483	-3.744635	3.801667	3.510650	-1.109539	-7.668100	1.628299	-0.170119	-8.121177	15.201722	-12.194672	-1.292158	13.231686	-2.360937	9.624800	1.590803	3.735705	6.191149	-3.970192	
1.767748	37.559036	-1.454902	2.707102	-10.139421	-9.167671	-4.793167	5.696956	-1.506072	-4.556656	4.260385	3.132398	7.207873	-0.815761	8.480174	-14.954348	-4.957191	-2.434892	0.519310	21.593920	3.244868	8.162754	-6.897885	3.853431	-4.129818	7.813717	0.719899	-3.859888	3.058197	2.803577	3.537975	-3.900097	-0.411467	-0.661236	-6.081563	-6.578288	13.401382	1.242669	-18.020912	-3.751900	3.797099	3.520179	-1.101898	-7.664059	1.637066	-0.174559	-8.122423	15.202598	-12.187802	-1.286886	13.247340	-2.350273	9.619092	1.629797	3.725652	6.147142	-3.917099	
